<svg xmlns="http://www.w3.org/2000/svg" viewBox="0 0 1024 576" width="1024" height="576" role="img">
  <rect width="1024" height="576" fill="#f3f6fb"/>
  <text x="64" y="58" font-family="Geist, 'Segoe UI', system-ui, -apple-system, sans-serif" font-size="20" font-weight="700"
    fill="#14b8a6" text-anchor="start" letter-spacing="2" opacity="1" font-variant-numeric="lining-nums" font-feature-settings="'lnum' 1, 'onum' 0">REAL CONSEQUENCES</text>
    <text x="60" y="128" font-family="'Instrument Serif', Georgia, 'Times New Roman', serif" font-size="40" font-weight="400"
    fill="#0f6b60" text-anchor="start" letter-spacing="0" opacity="1" font-variant-numeric="lining-nums" font-feature-settings="'lnum' 1, 'onum' 0">For Individuals,</text>
    <text x="60" y="174" font-family="'Instrument Serif', Georgia, 'Times New Roman', serif" font-size="40" font-weight="400"
    fill="#4338ca" text-anchor="start" letter-spacing="0" opacity="1" font-variant-numeric="lining-nums" font-feature-settings="'lnum' 1, 'onum' 0">or Businesses?</text>
    <rect x="64" y="190" width="896" height="1.4" fill="#d9dfe9"/>

    <text x="64" y="216" font-family="Geist, 'Segoe UI', system-ui, -apple-system, sans-serif" font-size="20" font-weight="700"
    fill="#14b8a6" text-anchor="start" letter-spacing="2" opacity="1" font-variant-numeric="lining-nums" font-feature-settings="'lnum' 1, 'onum' 0">INDIVIDUALS</text>
    
    <circle cx="84" cy="254" r="20" fill="#14b8a6" opacity="0.14"/>
    
    <path d="M84,242 L95.4,263 L72.6,263 Z"
          fill="none" stroke="#14b8a6" stroke-width="1.6800000000000002" stroke-linejoin="round"/>
    <line x1="84" y1="250.16" x2="84" y2="256.16" stroke="#14b8a6" stroke-width="1.7999999999999998" stroke-linecap="round"/>
    <circle cx="84" cy="259.76" r="1.08" fill="#14b8a6"/>
    <text x="118" y="254" font-family="Geist, 'Segoe UI', system-ui, -apple-system, sans-serif" font-size="21" font-weight="400"
    fill="#101a33" text-anchor="start" letter-spacing="0" opacity="1" font-variant-numeric="lining-nums" font-feature-settings="'lnum' 1, 'onum' 0">Missed critical messages</text>
    <circle cx="84" cy="336" r="20" fill="#14b8a6" opacity="0.14"/>
    
    <path d="M84,324 L95.4,345 L72.6,345 Z"
          fill="none" stroke="#14b8a6" stroke-width="1.6800000000000002" stroke-linejoin="round"/>
    <line x1="84" y1="332.16" x2="84" y2="338.16" stroke="#14b8a6" stroke-width="1.7999999999999998" stroke-linecap="round"/>
    <circle cx="84" cy="341.76" r="1.08" fill="#14b8a6"/>
    <text x="118" y="336" font-family="Geist, 'Segoe UI', system-ui, -apple-system, sans-serif" font-size="21" font-weight="400"
    fill="#101a33" text-anchor="start" letter-spacing="0" opacity="1" font-variant-numeric="lining-nums" font-feature-settings="'lnum' 1, 'onum' 0">Increased stress and frustration</text>
    <circle cx="84" cy="418" r="20" fill="#14b8a6" opacity="0.14"/>
    
    <path d="M84,406 L95.4,427 L72.6,427 Z"
          fill="none" stroke="#14b8a6" stroke-width="1.6800000000000002" stroke-linejoin="round"/>
    <line x1="84" y1="414.16" x2="84" y2="420.16" stroke="#14b8a6" stroke-width="1.7999999999999998" stroke-linecap="round"/>
    <circle cx="84" cy="423.76" r="1.08" fill="#14b8a6"/>
    <text x="118" y="418" font-family="Geist, 'Segoe UI', system-ui, -apple-system, sans-serif" font-size="21" font-weight="400"
    fill="#101a33" text-anchor="start" letter-spacing="0" opacity="1" font-variant-numeric="lining-nums" font-feature-settings="'lnum' 1, 'onum' 0">Phone performance issues</text>

    <line x1="480" y1="206" x2="480" y2="500" stroke="#d9dfe9" stroke-width="2"/>

    <text x="528" y="216" font-family="Geist, 'Segoe UI', system-ui, -apple-system, sans-serif" font-size="20" font-weight="700"
    fill="#4338ca" text-anchor="start" letter-spacing="2" opacity="1" font-variant-numeric="lining-nums" font-feature-settings="'lnum' 1, 'onum' 0">BUSINESSES</text>
    
    <circle cx="548" cy="254" r="20" fill="#4338ca" opacity="0.14"/>
    
    <circle cx="548" cy="254" r="2.64" fill="#4338ca"/>
    <path d="M542,248 A8.399999999999999,8.399999999999999 0 0 0 542,260"
          fill="none" stroke="#4338ca" stroke-width="1.56" stroke-linecap="round"/>
    <path d="M554,248 A8.399999999999999,8.399999999999999 0 0 1 554,260"
          fill="none" stroke="#4338ca" stroke-width="1.56" stroke-linecap="round"/>
    <path d="M536.6,242.6 A16.200000000000003,16.200000000000003 0 0 0 536.6,265.4"
          fill="none" stroke="#4338ca" stroke-width="1.2000000000000002" stroke-linecap="round" opacity="0.55"/>
    <path d="M559.4,242.6 A16.200000000000003,16.200000000000003 0 0 1 559.4,265.4"
          fill="none" stroke="#4338ca" stroke-width="1.2000000000000002" stroke-linecap="round" opacity="0.55"/>
    <text x="582" y="254" font-family="Geist, 'Segoe UI', system-ui, -apple-system, sans-serif" font-size="21" font-weight="400"
    fill="#101a33" text-anchor="start" letter-spacing="0" opacity="1" font-variant-numeric="lining-nums" font-feature-settings="'lnum' 1, 'onum' 0">Downtime in customer support</text>
    <circle cx="548" cy="336" r="20" fill="#4338ca" opacity="0.14"/>
    
    <circle cx="548" cy="336" r="2.64" fill="#4338ca"/>
    <path d="M542,330 A8.399999999999999,8.399999999999999 0 0 0 542,342"
          fill="none" stroke="#4338ca" stroke-width="1.56" stroke-linecap="round"/>
    <path d="M554,330 A8.399999999999999,8.399999999999999 0 0 1 554,342"
          fill="none" stroke="#4338ca" stroke-width="1.56" stroke-linecap="round"/>
    <path d="M536.6,324.6 A16.200000000000003,16.200000000000003 0 0 0 536.6,347.4"
          fill="none" stroke="#4338ca" stroke-width="1.2000000000000002" stroke-linecap="round" opacity="0.55"/>
    <path d="M559.4,324.6 A16.200000000000003,16.200000000000003 0 0 1 559.4,347.4"
          fill="none" stroke="#4338ca" stroke-width="1.2000000000000002" stroke-linecap="round" opacity="0.55"/>
    <text x="582" y="336" font-family="Geist, 'Segoe UI', system-ui, -apple-system, sans-serif" font-size="21" font-weight="400"
    fill="#101a33" text-anchor="start" letter-spacing="0" opacity="1" font-variant-numeric="lining-nums" font-feature-settings="'lnum' 1, 'onum' 0">Damage to brand reputation</text>
    <circle cx="548" cy="418" r="20" fill="#4338ca" opacity="0.14"/>
    
    <circle cx="548" cy="418" r="2.64" fill="#4338ca"/>
    <path d="M542,412 A8.399999999999999,8.399999999999999 0 0 0 542,424"
          fill="none" stroke="#4338ca" stroke-width="1.56" stroke-linecap="round"/>
    <path d="M554,412 A8.399999999999999,8.399999999999999 0 0 1 554,424"
          fill="none" stroke="#4338ca" stroke-width="1.56" stroke-linecap="round"/>
    <path d="M536.6,406.6 A16.200000000000003,16.200000000000003 0 0 0 536.6,429.4"
          fill="none" stroke="#4338ca" stroke-width="1.2000000000000002" stroke-linecap="round" opacity="0.55"/>
    <path d="M559.4,406.6 A16.200000000000003,16.200000000000003 0 0 1 559.4,429.4"
          fill="none" stroke="#4338ca" stroke-width="1.2000000000000002" stroke-linecap="round" opacity="0.55"/>
    <text x="582" y="418" font-family="Geist, 'Segoe UI', system-ui, -apple-system, sans-serif" font-size="21" font-weight="400"
    fill="#101a33" text-anchor="start" letter-spacing="0" opacity="1" font-variant-numeric="lining-nums" font-feature-settings="'lnum' 1, 'onum' 0">Security vulnerabilities</text>

    <rect x="64" y="500" width="419" height="40" rx="20" fill="#ffffff"
        />
      <text x="86" y="527.2" font-family="Geist, 'Segoe UI', system-ui, -apple-system, sans-serif" font-size="20" font-weight="600"
    fill="#0f6b60" text-anchor="start" letter-spacing="0" opacity="1" font-variant-numeric="lining-nums" font-feature-settings="'lnum' 1, 'onum' 0">💸 Both can end up costing real money</text>
</svg>
