<svg xmlns="http://www.w3.org/2000/svg" viewBox="0 0 1024 576" width="1024" height="576" role="img">
  <defs>
  <linearGradient id="wash" x1="0" y1="0" x2="1" y2="1">
    <stop offset="0%" stop-color="#fbf8ff"/><stop offset="100%" stop-color="#f1eafd"/>
  </linearGradient>
  <radialGradient id="glow" cx="50%" cy="50%" r="50%">
    <stop offset="0%" stop-color="#ffffff" stop-opacity="0.95"/>
    <stop offset="100%" stop-color="#ffffff" stop-opacity="0"/>
  </radialGradient></defs>
  <rect width="1024" height="576" fill="url(#wash)"/>
  <ellipse cx="512" cy="300" rx="620" ry="420" fill="url(#glow)"/>
    
  <text x="512" y="60" font-family="'Instrument Serif', Georgia, 'Times New Roman', serif" font-size="44" font-weight="400"
    fill="#101a33" text-anchor="middle" letter-spacing="0" opacity="1" font-variant-numeric="lining-nums" font-feature-settings="'lnum' 1, 'onum' 0">The San Gabriel Valley Code</text>
  <rect x="206" y="86" width="220" height="1.4" fill="#d9dfe9"/>
  <rect x="598" y="86" width="220" height="1.4" fill="#d9dfe9"/>
  <rect x="505" y="80" width="14" height="14" transform="rotate(45 512 87)" fill="#7c3aed"/>
    <text x="68" y="178" font-family="Geist, 'Segoe UI', system-ui, -apple-system, sans-serif" font-size="22" font-weight="700"
    fill="#7c3aed" text-anchor="start" letter-spacing="2" opacity="1" font-variant-numeric="lining-nums" font-feature-settings="'lnum' 1, 'onum' 0">AREA CODE</text>
    <text x="68" y="316" font-family="'Instrument Serif', 'Times New Roman', Times, serif" font-size="168" font-weight="400"
    fill="#101a33" text-anchor="start" letter-spacing="0" opacity="1" font-variant-numeric="lining-nums" font-feature-settings="'lnum' 1, 'onum' 0">626</text>
    <rect x="68" y="344" width="420" height="3" fill="#7c3aed"/>
    <text x="68" y="396" font-family="'Instrument Serif', Georgia, 'Times New Roman', serif" font-size="30" font-weight="400"
    fill="#101a33" text-anchor="start" letter-spacing="0" opacity="1" font-variant-numeric="lining-nums" font-feature-settings="'lnum' 1, 'onum' 0">Pasadena</text><text x="68" y="436" font-family="'Instrument Serif', Georgia, 'Times New Roman', serif" font-size="30" font-weight="400"
    fill="#5b6478" text-anchor="start" letter-spacing="0" opacity="1" font-variant-numeric="lining-nums" font-feature-settings="'lnum' 1, 'onum' 0">El Monte</text><text x="68" y="476" font-family="'Instrument Serif', Georgia, 'Times New Roman', serif" font-size="30" font-weight="400"
    fill="#5b6478" text-anchor="start" letter-spacing="0" opacity="1" font-variant-numeric="lining-nums" font-feature-settings="'lnum' 1, 'onum' 0">West Covina</text><text x="68" y="516" font-family="'Instrument Serif', Georgia, 'Times New Roman', serif" font-size="30" font-weight="400"
    fill="#5b6478" text-anchor="start" letter-spacing="0" opacity="1" font-variant-numeric="lining-nums" font-feature-settings="'lnum' 1, 'onum' 0">Alhambra</text>
    <g transform="translate(639.6363636363636, 32.61640798226168) scale(0.8869179600886916)"><path d="M31.9,159.8L46.6,164L69.5,170.7L87.4,175.4L76.9,216.3L69.1,246.2L87.2,273.3L104.6,299.5L118.7,320.6L129,336.1L147.5,364L146.9,367L149.2,371.6L150.7,378.4L153.8,382.5L150.9,385.2L147.5,386.2L144.3,389.9L143.9,395.7L142.7,399.1L138.1,401.7L137.6,410.9L140.3,411.5L140.5,416.2L139,418.1L134.9,418.2L108.2,415L86.4,412.4L84.7,408.7L85.7,403.8L85.5,397.6L83.7,392.8L78.9,385.7L72.4,378.5L70.6,379.6L67.8,378L68.8,375.7L66.6,370.1L61.8,370.1L54.6,364.6L54.2,361.4L49.7,356.6L43.6,355.2L38.9,352.3L32.4,351.3L29.8,347.3L32.3,340.9L31.5,339.6L33.4,335.1L29.4,330.3L30.4,325.5L28.6,324.8L26.7,319.8L24.8,318.3L24.5,315.5L20,303.8L17.5,300.1L18.9,292.3L20.1,293.3L22.7,289.2L21.2,284.3L17.8,283.9L14.7,279L14,275.6L15.1,272.9L14.1,268.6L15.8,262.4L19.2,263.4L20.3,254.4L18.5,254.8L17,259L13.2,258.9L9.9,254.4L10.8,248.7L9.3,243.5L6.4,239.8L5.4,236.1L1.9,228.5L3.3,227L3.2,218.4L5.6,214.4L6,207.4L3.4,199.7L0.1,194.7L0.6,190.2L8.1,181.4L10,178.2L9.9,175.3L13.7,168.7L14.2,161.9L12.8,159.8L15.1,154.9L31.9,159.8Z" fill="#7c3aed"
        stroke="#ffffff" stroke-width="3.833500000000001" opacity="1"/><path d="M139,187.8L191,198.8L167.9,318.4L164.2,337.6L161.5,341.3L159.6,341.1L157.8,337.8L150.7,337.3L149.1,351.5L149.7,356.4L149.3,361L147.5,364L129,336.1L118.7,320.6L104.6,299.5L87.2,273.3L69.1,246.2L76.9,216.3L87.4,175.4L109.9,181.2L139,187.8Z" fill="#c9efe2"
        stroke="#ffffff" stroke-width="2.7060000000000004" opacity="0.8"/><path d="M262.3,333.9L243.4,470.6L202.1,464.5L179.9,451.6L132,423.2L134.9,418.2L139,418.1L140.5,416.2L140.3,411.5L137.6,410.9L138.1,401.7L142.7,399.1L143.9,395.7L144.3,389.9L147.5,386.2L150.9,385.2L153.8,382.5L150.7,378.4L149.2,371.6L146.9,367L147.5,364L149.3,361L149.7,356.4L149.1,351.5L150.7,337.3L157.8,337.8L159.6,341.1L161.5,341.3L164.2,337.6L167.9,318.4L234.8,329.8L262.3,333.9Z" fill="#f9d4e6"
        stroke="#ffffff" stroke-width="2.7060000000000004" opacity="0.8"/></g>
      
    
    <circle cx="735.2150776053215" cy="362.6430155210643" r="24" fill="#7c3aed" opacity="0.16"/>
    <circle cx="735.2150776053215" cy="362.6430155210643" r="10" fill="#7c3aed" stroke="#ffffff" stroke-width="3.5"/>
      <path d="M735.2150776053215,336.6430155210643 L735.2150776053215,300.6430155210643" stroke="#7c3aed" stroke-width="1.8" fill="none"/>
      <text x="735.2150776053215" y="288.6430155210643" font-family="Geist, 'Segoe UI', system-ui, -apple-system, sans-serif" font-size="22" font-weight="700"
    fill="#101a33" text-anchor="middle" letter-spacing="2" opacity="1" font-variant-numeric="lining-nums" font-feature-settings="'lnum' 1, 'onum' 0">LOS ANGELES</text>
    
  <rect x="68" y="526" width="888" height="1.4" fill="#d9dfe9"/>
  <text x="290" y="566" font-family="Geist, 'Segoe UI', system-ui, -apple-system, sans-serif" font-size="23" font-weight="700"
    fill="#5b6478" text-anchor="middle" letter-spacing="2" opacity="1" font-variant-numeric="lining-nums" font-feature-settings="'lnum' 1, 'onum' 0">PACIFIC TIME</text><text x="734" y="566" font-family="Geist, 'Segoe UI', system-ui, -apple-system, sans-serif" font-size="23" font-weight="700"
    fill="#5b6478" text-anchor="middle" letter-spacing="2" opacity="1" font-variant-numeric="lining-nums" font-feature-settings="'lnum' 1, 'onum' 0">LOS ANGELES COUNTY</text>
</svg>
