<svg xmlns="http://www.w3.org/2000/svg" viewBox="0 0 1024 576" width="1024" height="576" role="img">
  <defs>
  <linearGradient id="wash" x1="0" y1="0" x2="1" y2="1">
    <stop offset="0%" stop-color="#f5fdfb"/><stop offset="100%" stop-color="#e6f6f2"/>
  </linearGradient>
  <radialGradient id="glow" cx="50%" cy="50%" r="50%">
    <stop offset="0%" stop-color="#ffffff" stop-opacity="0.95"/>
    <stop offset="100%" stop-color="#ffffff" stop-opacity="0"/>
  </radialGradient></defs>
  <rect width="1024" height="576" fill="url(#wash)"/>
  <ellipse cx="512" cy="300" rx="620" ry="420" fill="url(#glow)"/>
    
  <text x="512" y="60" font-family="'Instrument Serif', Georgia, 'Times New Roman', serif" font-size="44" font-weight="400"
    fill="#101a33" text-anchor="middle" letter-spacing="0" opacity="1" font-variant-numeric="lining-nums" font-feature-settings="'lnum' 1, 'onum' 0">The Coast Side of North Carolina</text>
  <rect x="206" y="86" width="220" height="1.4" fill="#d9dfe9"/>
  <rect x="598" y="86" width="220" height="1.4" fill="#d9dfe9"/>
  <rect x="505" y="80" width="14" height="14" transform="rotate(45 512 87)" fill="#0f7d6b"/>
    <text x="68" y="180" font-family="Geist, 'Segoe UI', system-ui, -apple-system, sans-serif" font-size="22" font-weight="700"
    fill="#0f7d6b" text-anchor="start" letter-spacing="2" opacity="1" font-variant-numeric="lining-nums" font-feature-settings="'lnum' 1, 'onum' 0">AREA CODE</text>
    <text x="68" y="324" font-family="'Instrument Serif', 'Times New Roman', Times, serif" font-size="172" font-weight="400"
    fill="#101a33" text-anchor="start" letter-spacing="0" opacity="1" font-variant-numeric="lining-nums" font-feature-settings="'lnum' 1, 'onum' 0">252</text>
    <text x="68" y="382" font-family="'Instrument Serif', Georgia, 'Times New Roman', serif" font-size="42" font-weight="400"
    fill="#101a33" text-anchor="start" letter-spacing="0" opacity="1" font-variant-numeric="lining-nums" font-feature-settings="'lnum' 1, 'onum' 0">Inner &amp; Outer Banks</text>
    <text x="68" y="422" font-family="Geist, 'Segoe UI', system-ui, -apple-system, sans-serif" font-size="22" font-weight="700"
    fill="#0f7d6b" text-anchor="start" letter-spacing="2" opacity="1" font-variant-numeric="lining-nums" font-feature-settings="'lnum' 1, 'onum' 0">SPLIT FROM 919</text>
    <rect x="68" y="448" width="430" height="1.4" fill="#d9dfe9"/>
    <text x="68" y="492" font-family="'Instrument Serif', Georgia, 'Times New Roman', serif" font-size="26" font-weight="400"
    fill="#5b6478" text-anchor="start" letter-spacing="0" opacity="1" font-variant-numeric="lining-nums" font-feature-settings="'lnum' 1, 'onum' 0">Greenville · Rocky Mount · Nags Head</text>
    <g transform="translate(-575.3618843683082, -268.6830835117773) scale(1.6059957173447537)"><path d="M835.2,260.7L846.2,266.9L847.3,261.9L850.2,261.7L852.5,263.3L853.2,266.9L857.3,267.3L860.1,269L862.2,272.1L861.4,276.3L859.4,277.8L858.6,281.4L859.9,283.8L864.7,282L866.4,285.6L873.2,285.9L875.6,288.5L881.5,290.7L880.5,297.8L883.8,302.6L881.7,305.6L882.1,308.7L884.8,310.1L882.8,313.5L878.2,310.5L877.5,312L881.5,314L890.8,312.7L895.1,321.1L826.4,334.8L811.5,337.2L798.5,338.9L785.1,340.3L747.1,345.4L756.8,340.6L757.7,337.8L761.2,336.4L761.1,334.2L763.7,332.2L763.5,330.4L769.9,325.8L776.1,318.3L776.1,320.3L779.3,324L782.8,325.5L785.2,325L788.3,321.3L791.3,323.4L795.9,321.3L803.7,315.3L804.6,316.7L807.6,314L806.9,309.6L808.3,305.5L811.2,301.3L811.9,296.8L814.8,291.6L815.2,285.9L818.9,288.6L822.2,289.1L823.7,286.8L826.1,277.6L828.8,279.2L835.5,267.9L835.2,260.7Z" fill="#cdd8f7"
        stroke="#ffffff" stroke-width="1.4944" opacity="0.8"/><path d="M798.5,338.9L811.5,337.2L826.4,334.8L895.1,321.1L899.3,330.2L893.8,330.4L893.4,331.7L887.2,334.5L886.6,336L882.4,337.3L883,339L887.9,336.7L888.9,337.6L894.3,335.2L896.7,337L899.9,335.4L902.4,340.9L901.8,343.9L899.6,344.6L896,351.5L889.7,353.1L889.5,357.4L893.1,360.9L895.5,361.2L892.7,368.7L889.1,368.7L883.1,370.6L879.1,372.9L873.4,378.8L869.2,385.8L867.9,394L863.5,393L856.7,395.9L830.5,377L808.7,380.3L808.5,377.5L804.9,373.9L803.1,375.6L802.6,373.2L778.6,375.6L773.4,377.3L769.6,380.1L763.1,382.6L753.2,384.4L739.6,386L739.4,380.2L743.2,379.2L744.2,375L748.5,370.8L753.7,370L758,365.7L762.8,363.7L766.2,357.7L768.6,355.7L769.5,358L776.4,352.3L780,352.7L781.7,347.9L785.1,346.1L785.1,340.3L798.5,338.9Z" fill="#0f7d6b"
        stroke="#ffffff" stroke-width="2.1170666666666667" opacity="1"/><path d="M769.6,380.1L773.4,377.3L778.6,375.6L802.6,373.2L803.1,375.6L804.9,373.9L808.5,377.5L808.7,380.3L830.5,377L856.7,395.9L853.5,397.7L849.9,402.5L846.8,409.4L847,414.5L844.3,419L839.9,419.8L839.4,422.9L835.2,426.8L833.2,430.7L829.3,432.8L825.4,437.3L825.2,439L821.4,441.7L817.7,447.5L812.7,446.2L812,442.1L807.8,436.2L804.8,434.9L803.8,429.8L801.9,426.1L796,423.2L791.8,419.2L791.6,416.4L785.7,413.1L782.5,409L777.5,406.6L773.7,402.1L772.6,399.4L768.9,394.5L766.9,395.2L759.7,390.9L759.6,388.4L763.1,382.6L769.6,380.1Z" fill="#f9d4e6"
        stroke="#ffffff" stroke-width="1.4944" opacity="0.8"/></g>
      
    
    <circle cx="761.1477516059958" cy="307.70877944325474" r="24" fill="#0f7d6b" opacity="0.16"/>
    <circle cx="761.1477516059958" cy="307.70877944325474" r="10" fill="#0f7d6b" stroke="#ffffff" stroke-width="3.5"/>
      <path d="M761.1477516059958,281.70877944325474 L761.1477516059958,245.70877944325474" stroke="#0f7d6b" stroke-width="1.8" fill="none"/>
      <text x="761.1477516059958" y="233.70877944325474" font-family="Geist, 'Segoe UI', system-ui, -apple-system, sans-serif" font-size="22" font-weight="700"
    fill="#101a33" text-anchor="middle" letter-spacing="2" opacity="1" font-variant-numeric="lining-nums" font-feature-settings="'lnum' 1, 'onum' 0">EASTERN NC</text>
    
  <rect x="68" y="526" width="888" height="1.4" fill="#d9dfe9"/>
  <text x="290" y="566" font-family="Geist, 'Segoe UI', system-ui, -apple-system, sans-serif" font-size="23" font-weight="700"
    fill="#5b6478" text-anchor="middle" letter-spacing="2" opacity="1" font-variant-numeric="lining-nums" font-feature-settings="'lnum' 1, 'onum' 0">EASTERN TIME</text><text x="734" y="566" font-family="Geist, 'Segoe UI', system-ui, -apple-system, sans-serif" font-size="23" font-weight="700"
    fill="#5b6478" text-anchor="middle" letter-spacing="2" opacity="1" font-variant-numeric="lining-nums" font-feature-settings="'lnum' 1, 'onum' 0">TEN-DIGIT DIALLING</text>
</svg>
